<svg xmlns="http://www.w3.org/2000/svg" viewBox="0 0 100 100" width="100" height="100">
  <!-- Background circle -->
  <circle cx="50" cy="50" r="50" fill="#4A90E2"/>
  
  <!-- Mosque base -->
  <rect x="25" y="60" width="50" height="30" fill="#FFFFFF" rx="2"/>
  
  <!-- Main dome -->
  <ellipse cx="50" cy="55" rx="20" ry="15" fill="#FFFFFF"/>
  
  <!-- Dome crescent -->
  <path d="M 50 40 Q 47 37 50 35 Q 53 37 50 40" fill="#FFD700" stroke="#FFD700" stroke-width="1"/>
  
  <!-- Minaret -->
  <rect x="70" y="30" width="8" height="40" fill="#FFFFFF" rx="1"/>
  <ellipse cx="74" cy="30" rx="4" ry="3" fill="#FFFFFF"/>
  
  <!-- Minaret crescent -->
  <path d="M 74 27 Q 72 25 74 24 Q 76 25 74 27" fill="#FFD700" stroke="#FFD700" stroke-width="0.5"/>
  
  <!-- Entrance arch -->
  <path d="M 45 75 Q 45 65 50 65 Q 55 65 55 75 Z" fill="#4A90E2"/>
  
  <!-- Side windows -->
  <rect x="32" y="70" width="6" height="8" fill="#4A90E2" rx="3"/>
  <rect x="62" y="70" width="6" height="8" fill="#4A90E2" rx="3"/>
</svg> 